<svg width="18" height="19" viewBox="0 0 18 19" fill="none" xmlns="http://www.w3.org/2000/svg">
<path fill-rule="evenodd" clip-rule="evenodd" d="M8.99917 0.5C4.02941 0.5 0 4.5294 0 9.50028C0 13.4766 2.57853 16.8497 6.15488 18.0403C6.60517 18.1226 6.76927 17.8447 6.76927 17.606C6.76927 17.3928 6.76153 16.8265 6.75711 16.0756C4.25372 16.6193 3.72553 14.8689 3.72553 14.8689C3.31612 13.8297 2.72605 13.5529 2.72605 13.5529C1.9089 12.9943 2.78793 13.0054 2.78793 13.0054C3.69127 13.0694 4.16643 13.933 4.16643 13.933C4.96921 15.3082 6.27312 14.9109 6.78584 14.6811C6.86761 14.0993 7.09966 13.7026 7.35713 13.4777C5.35873 13.2507 3.25756 12.4783 3.25756 9.02954C3.25756 8.04719 3.6084 7.24385 4.18411 6.61455C4.09129 6.38692 3.78244 5.47197 4.27195 4.23271C4.27195 4.23271 5.02778 3.99071 6.74717 5.15539C7.46487 4.95594 8.23506 4.85593 9.00028 4.85262C9.76439 4.85593 10.5346 4.95594 11.2534 5.15539C12.9717 3.99071 13.7258 4.23271 13.7258 4.23271C14.217 5.47197 13.9082 6.38692 13.8153 6.61455C14.3922 7.24385 14.7408 8.04719 14.7408 9.02954C14.7408 12.4871 12.6363 13.2479 10.6313 13.4706C10.9545 13.7485 11.2423 14.2977 11.2423 15.1375C11.2423 16.3403 11.2313 17.311 11.2313 17.606C11.2313 17.8469 11.3932 18.1271 11.8501 18.0392C15.4237 16.8464 18 13.4755 18 9.50028C18 4.5294 13.97 0.5 8.99917 0.5Z" fill="white"/>
</svg>
