<svg width="24" height="24" viewBox="0 0 24 24" fill="none" xmlns="http://www.w3.org/2000/svg">
<path d="M0 1.71231C0 0.767169 0.794437 0 1.77375 0H22.2263C23.2059 0 24 0.767169 24 1.71231V22.192C24 23.1374 23.2059 23.904 22.2263 23.904H1.77375C0.794531 23.904 0 23.1375 0 22.1923V1.71203V1.71231Z" fill="#0E76A8"/>
<path d="M7.29427 20.0044V9.24265H3.7029V20.0044H7.29465H7.29427ZM5.49934 7.77357C6.75146 7.77357 7.53099 6.94719 7.53099 5.91445C7.50755 4.85818 6.75146 4.05487 5.52315 4.05487C4.29399 4.05487 3.49121 4.85818 3.49121 5.91436C3.49121 6.9471 4.27046 7.77347 5.4758 7.77347H5.49905L5.49934 7.77357ZM9.28215 20.0044H12.8732V13.9952C12.8732 13.674 12.8967 13.3519 12.9916 13.1225C13.2511 12.4796 13.842 11.8141 14.8343 11.8141C16.1335 11.8141 16.6535 12.8009 16.6535 14.2478V20.0044H20.2445V13.8339C20.2445 10.5285 18.473 8.99035 16.1102 8.99035C14.1731 8.99035 13.3223 10.0687 12.8496 10.8032H12.8735V9.24302H9.28234C9.32921 10.2526 9.28205 20.0048 9.28205 20.0048L9.28215 20.0044Z" fill="white"/>
</svg>
