<svg width="228" height="228" viewBox="0 0 228 228" fill="none" xmlns="http://www.w3.org/2000/svg">
<path d="M62.6999 62.1657L47.9155 47.3813V153.722L48.0937 158.709C48.0937 161.025 48.4499 163.697 49.3405 166.369L166.191 207.516L195.225 194.691L62.6999 62.1657Z" fill="#00C4B3"/>
<path d="M195.225 194.691L166.191 207.516L49.6968 166.369C52.0124 174.919 56.8218 184.359 62.1655 189.881L100.106 227.644L184.894 227.822L195.225 194.691Z" fill="#22D3C5"/>
<path d="M3.02807 115.959C-0.712552 119.878 1.24682 128.25 7.12495 134.484L33.3093 160.847L49.6968 166.725C49.1624 164.053 48.45 161.381 48.45 159.066L48.2718 154.078L47.9156 47.5594M195.225 194.691L208.05 165.478L167.081 48.6281C164.409 48.0937 161.737 47.5594 159.422 47.3813L154.256 47.2031L48.0937 47.3813" fill="#0075C9"/>
<path d="M195.225 194.691L226.753 184.359V97.6125L190.416 61.0969C185.072 55.7532 175.631 50.7657 166.903 48.6282L208.05 165.478" fill="#00A8E1"/>
<path d="M161.203 32.4187L134.841 6.23436C128.784 0.178114 120.591 -1.60313 116.316 2.13749L47.9155 47.3812H153.9L159.066 47.5594C161.381 47.5594 164.053 47.9156 166.725 48.8062L161.203 32.4187Z" fill="#00C4B3"/>
</svg>
