<svg width="228" height="228" viewBox="0 0 228 228" fill="none" xmlns="http://www.w3.org/2000/svg">
<path d="M227.736 64.9799C227.679 64.7662 227.573 64.5809 227.494 64.3743C227.36 63.9903 227.193 63.6184 226.995 63.2628C226.643 62.7513 226.257 62.2634 225.841 61.8022C225.642 61.6194 225.433 61.4482 225.214 61.2892C225.026 61.1172 224.828 60.9555 224.623 60.8047L224.309 60.6622L224.06 60.4912L181.31 39.1162C180.321 38.622 179.231 38.3647 178.125 38.3647C177.019 38.3647 175.929 38.622 174.94 39.1162L132.19 60.4912L131.941 60.6622L131.627 60.8047C131.422 60.9555 131.224 61.1172 131.036 61.2892C130.508 61.653 130.056 62.1151 129.704 62.6501C129.541 62.846 129.388 63.0506 129.247 63.2628C129.052 63.6186 128.888 63.9905 128.756 64.3743C128.685 64.5809 128.571 64.7662 128.514 64.9799C128.342 65.5947 128.253 66.2297 128.25 66.8681V105.215L99.75 119.465V38.3681C99.7471 37.7297 99.6584 37.0947 99.4864 36.4799C99.4294 36.2662 99.3225 36.0809 99.2441 35.8743C99.1099 35.4903 98.9431 35.1184 98.7454 34.7628C98.6068 34.5507 98.4569 34.3462 98.2965 34.1501C97.9439 33.6151 97.4915 33.153 96.9641 32.7892C96.7758 32.6172 96.5784 32.4555 96.3728 32.3047L96.0593 32.1622L95.8099 31.9912L53.0599 10.6162C52.0709 10.122 50.9805 9.86475 49.875 9.86475C48.7695 9.86475 47.6791 10.122 46.6901 10.6162L3.94012 31.9912L3.69075 32.1622L3.37725 32.3047C3.1716 32.4555 2.97419 32.6172 2.78588 32.7892C2.56731 32.9482 2.35798 33.1194 2.15888 33.3022C1.89974 33.5659 1.66152 33.8494 1.44637 34.1501C1.28596 34.3462 1.13612 34.5507 0.9975 34.7628C0.802267 35.1186 0.637794 35.4905 0.505875 35.8743C0.434625 36.0809 0.320625 36.2662 0.263625 36.4799C0.0915655 37.0947 0.00289695 37.7297 0 38.3681L0 173.743C0.000706434 175.066 0.369667 176.362 1.06556 177.487C1.76145 178.612 2.7568 179.521 3.94012 180.113L46.6901 201.488L89.4401 222.863C89.5399 222.913 89.6539 222.898 89.7679 222.941C90.6555 223.383 91.6335 223.613 92.625 223.613C93.6165 223.613 94.5945 223.383 95.4821 222.941C95.589 222.898 95.7101 222.913 95.8099 222.87L181.31 180.12C182.494 179.528 183.49 178.618 184.186 177.492C184.882 176.365 185.251 175.067 185.25 173.743V135.396L224.06 115.988C225.243 115.397 226.239 114.487 226.934 113.362C227.63 112.237 227.999 110.941 228 109.618V66.8681C227.997 66.2297 227.908 65.5947 227.736 64.9799ZM65.8065 152.368L95.8099 137.363H95.817L135.375 117.584L162.193 130.993L92.625 165.777L65.8065 152.368ZM171 92.6463V119.465L142.5 105.215V78.3963L171 92.6463ZM178.125 53.4588L204.943 66.8681L178.125 80.2773L151.307 66.8681L178.125 53.4588ZM57 140.84V64.1463L85.5 49.8963V126.59L57 140.84ZM49.875 24.9588L76.6935 38.3681L49.875 51.7773L23.0565 38.3681L49.875 24.9588ZM14.25 49.8963L42.75 64.1463V183.59L14.25 169.34V49.8963ZM57 163.896L85.5 178.146V204.965L57 190.715V163.896ZM171 169.34L99.75 204.965V178.146L171 142.521V169.34ZM213.75 105.215L185.25 119.465V92.6463L213.75 78.3963V105.215Z" fill="#FF5252"/>
</svg>
