<svg width="228" height="228" viewBox="0 0 228 228" fill="none" xmlns="http://www.w3.org/2000/svg">
<path d="M0 114C0 147.119 51.0399 173.969 114 173.969C176.96 173.969 228 147.119 228 114C228 80.8813 176.958 54.0308 114 54.0308C51.0417 54.0308 0 80.8813 0 114Z" fill="url(#paint0_radial_2219_33)"/>
<path d="M114 169.516C174.5 169.516 223.547 144.659 223.547 114C223.547 83.3377 174.5 58.4839 114 58.4839C53.4998 58.4839 4.45312 83.3377 4.45312 114C4.45312 144.659 53.4998 169.516 114 169.516Z" fill="#777BB3"/>
<path d="M61.9377 120.883C66.9127 120.883 70.6249 119.965 72.9743 118.157C75.3006 116.365 76.9056 113.264 77.7481 108.939C78.5318 104.896 78.2326 102.074 76.8575 100.55C75.4538 98.9929 72.4168 98.2038 67.8319 98.2038H59.8804L55.4753 120.883H61.9377ZM35.9332 148.818C35.7508 148.818 35.5707 148.777 35.4058 148.699C35.2409 148.621 35.0954 148.507 34.9796 148.366C34.8638 148.225 34.7807 148.061 34.7361 147.884C34.6916 147.707 34.6868 147.522 34.722 147.343L46.4016 87.2473C46.4568 86.9664 46.6077 86.7133 46.8286 86.5311C47.0494 86.3489 47.3266 86.2489 47.6129 86.248H72.7891C80.7014 86.248 86.5902 88.3962 90.2934 92.6338C94.0127 96.891 95.1634 102.848 93.7081 110.331C93.1149 113.378 92.0961 116.209 90.68 118.745C89.2063 121.354 87.3254 123.712 85.1082 125.728C82.3811 128.278 79.2942 130.131 75.9401 131.219C72.6412 132.295 68.4019 132.84 63.3467 132.84H53.1508L50.2402 147.817C50.1853 148.099 50.0341 148.353 49.8124 148.535C49.5908 148.718 49.3126 148.818 49.0254 148.818H35.9332Z" fill="black"/>
<path d="M60.9008 99.4402H67.8316C73.366 99.4402 75.288 100.655 75.9417 101.38C77.0229 102.581 77.2295 105.115 76.5313 108.704C75.7493 112.725 74.2994 115.577 72.2206 117.176C70.0938 118.815 66.6311 119.645 61.9375 119.645H56.9749L60.9008 99.4402ZM72.7889 85.012H47.6145C47.0404 85.0121 46.4841 85.2116 46.0409 85.5765C45.5977 85.9414 45.2951 86.449 45.1848 87.0124L33.5052 147.11C33.4362 147.468 33.4471 147.837 33.5372 148.19C33.6272 148.543 33.7942 148.872 34.0261 149.154C34.258 149.435 34.5492 149.661 34.8789 149.817C35.2085 149.973 35.5685 150.054 35.933 150.054H49.0252C49.5992 150.054 50.1552 149.854 50.5981 149.489C51.041 149.123 51.3432 148.616 51.453 148.052L54.1695 134.077H63.3447C68.5317 134.077 72.8993 133.51 76.3246 132.395C79.8462 131.252 83.0863 129.312 85.9541 126.629C88.2637 124.526 90.2233 122.069 91.7592 119.349C93.2394 116.7 94.3046 113.744 94.9209 110.566C96.4528 102.687 95.2077 96.38 91.223 91.82C87.2758 87.3009 81.0735 85.0103 72.7889 85.0103V85.012ZM53.9735 122.117H61.9375C67.2159 122.118 71.1465 121.124 73.7294 119.134C76.3122 117.146 78.0566 113.826 78.9627 109.175C79.8272 104.707 79.4323 101.556 77.7781 99.7198C76.1216 97.8839 72.8061 96.966 67.8316 96.966H58.8613L53.9735 122.117ZM72.7906 87.4808C80.3645 87.4808 85.8882 89.4687 89.3616 93.4445C92.835 97.4202 93.88 102.969 92.4966 110.092C91.9242 113.028 90.9594 115.71 89.6021 118.14C88.2424 120.572 86.4665 122.797 84.2744 124.814C81.6619 127.26 78.7572 129.003 75.5605 130.042C72.3649 131.082 68.2936 131.602 63.3465 131.601H52.1317L49.027 147.578H35.9348L47.6162 87.4808H72.7906Z" fill="white"/>
<path d="M123.724 132.84C123.541 132.84 123.361 132.8 123.196 132.722C123.03 132.645 122.885 132.531 122.768 132.391C122.652 132.25 122.569 132.085 122.524 131.908C122.479 131.731 122.474 131.546 122.509 131.367L127.674 104.777C128.168 102.247 128.047 100.434 127.336 99.6644C126.9 99.196 125.592 98.4105 121.725 98.4105H112.363L105.868 131.841C105.813 132.122 105.661 132.376 105.439 132.558C105.217 132.74 104.939 132.839 104.652 132.838H91.6665C91.4841 132.839 91.3039 132.798 91.1388 132.721C90.9738 132.643 90.8279 132.53 90.7116 132.389C90.5954 132.249 90.5117 132.084 90.4664 131.908C90.4212 131.731 90.4155 131.546 90.4499 131.367L102.131 71.2695C102.187 70.988 102.338 70.7344 102.56 70.5522C102.781 70.3699 103.059 70.2702 103.346 70.2703H116.331C116.514 70.2701 116.694 70.3103 116.859 70.388C117.024 70.4656 117.17 70.5788 117.286 70.7193C117.403 70.8599 117.486 71.0245 117.532 71.2012C117.577 71.3779 117.582 71.5624 117.548 71.7416L114.73 86.2481H124.8C132.471 86.2481 137.673 87.5983 140.703 90.3824C143.789 93.2199 144.755 97.7567 143.567 103.872L138.132 131.841C138.077 132.122 137.925 132.375 137.703 132.557C137.482 132.739 137.204 132.839 136.917 132.838L123.724 132.84Z" fill="black"/>
<path d="M116.333 69.0322H103.346C102.772 69.0324 102.215 69.2321 101.772 69.5974C101.329 69.9626 101.027 70.4706 100.917 71.0344L89.237 131.13C89.1677 131.488 89.1784 131.857 89.2683 132.211C89.3582 132.564 89.5251 132.894 89.7571 133.175C89.989 133.456 90.2803 133.683 90.6101 133.839C90.9399 133.995 91.3001 134.076 91.6648 134.076H104.652C105.226 134.076 105.783 133.876 106.226 133.511C106.669 133.146 106.972 132.638 107.082 132.074L113.382 99.6466H121.722C125.583 99.6466 126.396 100.471 126.426 100.509C126.661 100.758 126.969 101.925 126.46 104.541L121.294 131.13C121.225 131.488 121.236 131.858 121.326 132.211C121.416 132.565 121.583 132.894 121.815 133.176C122.047 133.457 122.338 133.684 122.668 133.84C122.999 133.995 123.359 134.076 123.724 134.076H136.919C137.493 134.076 138.049 133.876 138.492 133.511C138.935 133.145 139.237 132.638 139.347 132.074L144.782 104.109C146.055 97.5429 144.965 92.6195 141.54 89.4721C138.269 86.4689 132.794 85.01 124.8 85.01H116.232L118.763 71.9802C118.833 71.6218 118.822 71.2525 118.732 70.8986C118.642 70.5448 118.475 70.2152 118.243 69.9335C118.011 69.6517 117.719 69.4248 117.389 69.269C117.059 69.1132 116.698 69.0324 116.333 69.0322ZM116.333 71.5082L113.229 87.4824H124.8C132.08 87.4824 137.102 88.753 139.864 91.2943C142.628 93.8332 143.458 97.9478 142.354 103.638L136.917 131.602H123.724L128.891 105.012C129.479 101.987 129.262 99.9244 128.241 98.8236C127.22 97.724 125.048 97.1742 121.725 97.1742H111.342L104.652 131.6H91.663L103.344 71.5028H116.333V71.5082Z" fill="white"/>
<path d="M164.117 120.883C169.092 120.883 172.806 119.965 175.157 118.157C177.48 116.365 179.087 113.264 179.929 108.939C180.713 104.896 180.416 102.074 179.039 100.55C177.635 98.9929 174.598 98.2038 170.013 98.2038H162.063L157.655 120.883H164.117ZM138.118 148.818C137.935 148.818 137.755 148.778 137.589 148.7C137.424 148.622 137.278 148.509 137.162 148.368C137.046 148.227 136.962 148.062 136.918 147.884C136.873 147.707 136.868 147.522 136.903 147.343L148.583 87.2473C148.638 86.9658 148.79 86.7122 149.011 86.5299C149.233 86.3477 149.511 86.248 149.798 86.248H174.972C182.884 86.248 188.773 88.3962 192.475 92.6338C196.196 96.891 197.345 102.848 195.889 110.331C195.332 113.278 194.311 116.118 192.863 118.745C191.389 121.354 189.508 123.712 187.291 125.728C184.566 128.278 181.475 130.131 178.123 131.219C174.824 132.295 170.585 132.84 165.528 132.84H155.334L152.425 147.817C152.37 148.099 152.218 148.353 151.996 148.536C151.774 148.719 151.496 148.818 151.208 148.818H138.118Z" fill="black"/>
<path d="M163.082 99.4402H170.013C175.548 99.4402 177.47 100.655 178.122 101.38C179.208 102.581 179.411 105.115 178.715 108.704C177.931 112.725 176.481 115.577 174.402 117.176C172.274 118.815 168.811 119.645 164.119 119.645H159.157L163.082 99.4402ZM174.97 85.012H149.796C149.222 85.0125 148.667 85.2122 148.224 85.5771C147.781 85.9419 147.478 86.4493 147.368 87.0124L135.687 147.11C135.618 147.468 135.629 147.837 135.719 148.19C135.809 148.544 135.976 148.873 136.208 149.154C136.44 149.436 136.732 149.662 137.062 149.818C137.392 149.973 137.752 150.054 138.116 150.054H151.209C151.783 150.054 152.339 149.854 152.782 149.489C153.224 149.123 153.527 148.616 153.636 148.052L156.353 134.077H165.526C170.712 134.077 175.081 133.51 178.504 132.395C182.028 131.252 185.268 129.312 188.138 126.627C190.446 124.525 192.405 122.068 193.941 119.349C195.423 116.7 196.484 113.744 197.103 110.566C198.634 102.687 197.391 96.38 193.405 91.82C189.457 87.3009 183.257 85.0103 174.969 85.0103L174.97 85.012ZM156.155 122.117H164.117C169.396 122.118 173.328 121.124 175.913 119.134C178.496 117.146 180.239 113.826 181.143 109.175C182.011 104.707 181.616 101.556 179.958 99.7198C178.3 97.8839 174.985 96.966 170.013 96.966H161.045L156.155 122.117ZM174.97 87.4808C182.544 87.4808 188.068 89.4687 191.541 93.4445C195.015 97.4202 196.059 102.969 194.675 110.092C194.105 113.028 193.14 115.71 191.782 118.14C190.423 120.572 188.647 122.797 186.452 124.814C183.84 127.26 180.935 129.003 177.739 130.042C174.544 131.082 170.473 131.602 165.526 131.601H154.313L151.205 147.578H138.113L149.794 87.4808H174.97Z" fill="white"/>
<defs>
<radialGradient id="paint0_radial_2219_33" cx="0" cy="0" r="1" gradientUnits="userSpaceOnUse" gradientTransform="translate(68.4463 75.1136) scale(149.699 149.699)">
<stop stop-color="#AEB2D5"/>
<stop offset="0.3" stop-color="#AEB2D5"/>
<stop offset="0.75" stop-color="#484C89"/>
<stop offset="1" stop-color="#484C89"/>
</radialGradient>
</defs>
</svg>
