<svg width="48" height="48" viewBox="0 0 48 48" fill="none" xmlns="http://www.w3.org/2000/svg">
<path d="M0 16.1C0 10.4051 0 7.55764 1.12587 5.39026C2.07462 3.56382 3.56382 2.07462 5.39026 1.12587C7.55764 0 10.4051 0 16.1 0H31.9C37.5949 0 40.4424 0 42.6097 1.12587C44.4362 2.07462 45.9254 3.56382 46.8741 5.39026C48 7.55764 48 10.4051 48 16.1V31.9C48 37.5949 48 40.4424 46.8741 42.6097C45.9254 44.4362 44.4362 45.9254 42.6097 46.8741C40.4424 48 37.5949 48 31.9 48H16.1C10.4051 48 7.55764 48 5.39026 46.8741C3.56382 45.9254 2.07462 44.4362 1.12587 42.6097C0 40.4424 0 37.5949 0 31.9V16.1Z" fill="#1ED760"/>
<path d="M34.0562 22.0709C28.5763 18.8165 19.5373 18.5173 14.3062 20.1052C13.4662 20.36 12.5779 19.8858 12.3233 19.0457C12.0687 18.2053 12.5425 17.3176 13.3832 17.0622C19.3881 15.2392 29.3707 15.5915 35.6791 19.3362C36.4347 19.7847 36.6826 20.7605 36.2348 21.5148C35.7865 22.2704 34.8099 22.5195 34.0562 22.0709ZM33.8767 26.891C33.4922 27.5148 32.6766 27.7105 32.0536 27.3274C27.485 24.5193 20.5186 23.7058 15.1137 25.3463C14.4128 25.5582 13.6724 25.163 13.4597 24.4635C13.2484 23.7625 13.6438 23.0236 14.3434 22.8104C20.5178 20.9369 28.1935 21.8443 33.4407 25.0688C34.0637 25.4525 34.2598 26.2688 33.8767 26.891ZM31.7966 31.52C31.491 32.021 30.8388 32.1779 30.3396 31.8726C26.3474 29.4327 21.3227 28.8818 15.4052 30.2334C14.835 30.3641 14.2668 30.0068 14.1367 29.4366C14.0062 28.8666 14.362 28.2982 14.9337 28.168C21.4092 26.6877 26.9641 27.3248 31.445 30.0629C31.9445 30.368 32.1019 31.0206 31.7966 31.52ZM24.0001 7C14.6113 7 7 14.6112 7 23.9998C7 33.3895 14.6113 41 24.0001 41C33.3891 41 41 33.3895 41 23.9998C41 14.6112 33.3891 7 24.0001 7Z" fill="white"/>
</svg>
