<svg width="44" height="24" viewBox="0 0 44 24" fill="none" xmlns="http://www.w3.org/2000/svg">
<path d="M5 7C5.53043 7 6.03914 6.78929 6.41421 6.41421C6.78929 6.03914 7 5.53043 7 5C7 4.46957 6.78929 3.96086 6.41421 3.58579C6.03914 3.21071 5.53043 3 5 3C4.46957 3 3.96086 3.21071 3.58579 3.58579C3.21071 3.96086 3 4.46957 3 5C3 5.53043 3.21071 6.03914 3.58579 6.41421C3.96086 6.78929 4.46957 7 5 7ZM12 7C12.5304 7 13.0391 6.78929 13.4142 6.41421C13.7893 6.03914 14 5.53043 14 5C14 4.46957 13.7893 3.96086 13.4142 3.58579C13.0391 3.21071 12.5304 3 12 3C11.4696 3 10.9609 3.21071 10.5858 3.58579C10.2107 3.96086 10 4.46957 10 5C10 5.53043 10.2107 6.03914 10.5858 6.41421C10.9609 6.78929 11.4696 7 12 7ZM19 7C19.5304 7 20.0391 6.78929 20.4142 6.41421C20.7893 6.03914 21 5.53043 21 5C21 4.46957 20.7893 3.96086 20.4142 3.58579C20.0391 3.21071 19.5304 3 19 3C18.4696 3 17.9609 3.21071 17.5858 3.58579C17.2107 3.96086 17 4.46957 17 5C17 5.53043 17.2107 6.03914 17.5858 6.41421C17.9609 6.78929 18.4696 7 19 7ZM5 14C5.53043 14 6.03914 13.7893 6.41421 13.4142C6.78929 13.0391 7 12.5304 7 12C7 11.4696 6.78929 10.9609 6.41421 10.5858C6.03914 10.2107 5.53043 10 5 10C4.46957 10 3.96086 10.2107 3.58579 10.5858C3.21071 10.9609 3 11.4696 3 12C3 12.5304 3.21071 13.0391 3.58579 13.4142C3.96086 13.7893 4.46957 14 5 14ZM12 14C12.5304 14 13.0391 13.7893 13.4142 13.4142C13.7893 13.0391 14 12.5304 14 12C14 11.4696 13.7893 10.9609 13.4142 10.5858C13.0391 10.2107 12.5304 10 12 10C11.4696 10 10.9609 10.2107 10.5858 10.5858C10.2107 10.9609 10 11.4696 10 12C10 12.5304 10.2107 13.0391 10.5858 13.4142C10.9609 13.7893 11.4696 14 12 14ZM19 14C19.5304 14 20.0391 13.7893 20.4142 13.4142C20.7893 13.0391 21 12.5304 21 12C21 11.4696 20.7893 10.9609 20.4142 10.5858C20.0391 10.2107 19.5304 10 19 10C18.4696 10 17.9609 10.2107 17.5858 10.5858C17.2107 10.9609 17 11.4696 17 12C17 12.5304 17.2107 13.0391 17.5858 13.4142C17.9609 13.7893 18.4696 14 19 14ZM5 21C5.53043 21 6.03914 20.7893 6.41421 20.4142C6.78929 20.0391 7 19.5304 7 19C7 18.4696 6.78929 17.9609 6.41421 17.5858C6.03914 17.2107 5.53043 17 5 17C4.46957 17 3.96086 17.2107 3.58579 17.5858C3.21071 17.9609 3 18.4696 3 19C3 19.5304 3.21071 20.0391 3.58579 20.4142C3.96086 20.7893 4.46957 21 5 21ZM12 21C12.5304 21 13.0391 20.7893 13.4142 20.4142C13.7893 20.0391 14 19.5304 14 19C14 18.4696 13.7893 17.9609 13.4142 17.5858C13.0391 17.2107 12.5304 17 12 17C11.4696 17 10.9609 17.2107 10.5858 17.5858C10.2107 17.9609 10 18.4696 10 19C10 19.5304 10.2107 20.0391 10.5858 20.4142C10.9609 20.7893 11.4696 21 12 21ZM19 21C19.5304 21 20.0391 20.7893 20.4142 20.4142C20.7893 20.0391 21 19.5304 21 19C21 18.4696 20.7893 17.9609 20.4142 17.5858C20.0391 17.2107 19.5304 17 19 17C18.4696 17 17.9609 17.2107 17.5858 17.5858C17.2107 17.9609 17 18.4696 17 19C17 19.5304 17.2107 20.0391 17.5858 20.4142C17.9609 20.7893 18.4696 21 19 21Z" fill="white"/>
<path d="M25 7C25.5304 7 26.0391 6.78929 26.4142 6.41421C26.7893 6.03914 27 5.53043 27 5C27 4.46957 26.7893 3.96086 26.4142 3.58579C26.0391 3.21071 25.5304 3 25 3C24.4696 3 23.9609 3.21071 23.5858 3.58579C23.2107 3.96086 23 4.46957 23 5C23 5.53043 23.2107 6.03914 23.5858 6.41421C23.9609 6.78929 24.4696 7 25 7ZM32 7C32.5304 7 33.0391 6.78929 33.4142 6.41421C33.7893 6.03914 34 5.53043 34 5C34 4.46957 33.7893 3.96086 33.4142 3.58579C33.0391 3.21071 32.5304 3 32 3C31.4696 3 30.9609 3.21071 30.5858 3.58579C30.2107 3.96086 30 4.46957 30 5C30 5.53043 30.2107 6.03914 30.5858 6.41421C30.9609 6.78929 31.4696 7 32 7ZM39 7C39.5304 7 40.0391 6.78929 40.4142 6.41421C40.7893 6.03914 41 5.53043 41 5C41 4.46957 40.7893 3.96086 40.4142 3.58579C40.0391 3.21071 39.5304 3 39 3C38.4696 3 37.9609 3.21071 37.5858 3.58579C37.2107 3.96086 37 4.46957 37 5C37 5.53043 37.2107 6.03914 37.5858 6.41421C37.9609 6.78929 38.4696 7 39 7ZM25 14C25.5304 14 26.0391 13.7893 26.4142 13.4142C26.7893 13.0391 27 12.5304 27 12C27 11.4696 26.7893 10.9609 26.4142 10.5858C26.0391 10.2107 25.5304 10 25 10C24.4696 10 23.9609 10.2107 23.5858 10.5858C23.2107 10.9609 23 11.4696 23 12C23 12.5304 23.2107 13.0391 23.5858 13.4142C23.9609 13.7893 24.4696 14 25 14ZM32 14C32.5304 14 33.0391 13.7893 33.4142 13.4142C33.7893 13.0391 34 12.5304 34 12C34 11.4696 33.7893 10.9609 33.4142 10.5858C33.0391 10.2107 32.5304 10 32 10C31.4696 10 30.9609 10.2107 30.5858 10.5858C30.2107 10.9609 30 11.4696 30 12C30 12.5304 30.2107 13.0391 30.5858 13.4142C30.9609 13.7893 31.4696 14 32 14ZM39 14C39.5304 14 40.0391 13.7893 40.4142 13.4142C40.7893 13.0391 41 12.5304 41 12C41 11.4696 40.7893 10.9609 40.4142 10.5858C40.0391 10.2107 39.5304 10 39 10C38.4696 10 37.9609 10.2107 37.5858 10.5858C37.2107 10.9609 37 11.4696 37 12C37 12.5304 37.2107 13.0391 37.5858 13.4142C37.9609 13.7893 38.4696 14 39 14ZM25 21C25.5304 21 26.0391 20.7893 26.4142 20.4142C26.7893 20.0391 27 19.5304 27 19C27 18.4696 26.7893 17.9609 26.4142 17.5858C26.0391 17.2107 25.5304 17 25 17C24.4696 17 23.9609 17.2107 23.5858 17.5858C23.2107 17.9609 23 18.4696 23 19C23 19.5304 23.2107 20.0391 23.5858 20.4142C23.9609 20.7893 24.4696 21 25 21ZM32 21C32.5304 21 33.0391 20.7893 33.4142 20.4142C33.7893 20.0391 34 19.5304 34 19C34 18.4696 33.7893 17.9609 33.4142 17.5858C33.0391 17.2107 32.5304 17 32 17C31.4696 17 30.9609 17.2107 30.5858 17.5858C30.2107 17.9609 30 18.4696 30 19C30 19.5304 30.2107 20.0391 30.5858 20.4142C30.9609 20.7893 31.4696 21 32 21ZM39 21C39.5304 21 40.0391 20.7893 40.4142 20.4142C40.7893 20.0391 41 19.5304 41 19C41 18.4696 40.7893 17.9609 40.4142 17.5858C40.0391 17.2107 39.5304 17 39 17C38.4696 17 37.9609 17.2107 37.5858 17.5858C37.2107 17.9609 37 18.4696 37 19C37 19.5304 37.2107 20.0391 37.5858 20.4142C37.9609 20.7893 38.4696 21 39 21Z" fill="white"/>
</svg>
